# xmcd
#
# Track frame offsets:
#	150
#	18730
#	30605
#	45855
#	58715
#	70395
#	87505
#	104070
#	117745
#	130352
#	143795
#	159465
#
# Disc length: 2311 seconds
#
# Revision: 0
# Processed by: cddbd v1.5.1PL0 Copyright (c) Steve Scherf et al.
# Submitted via: dBpowerAMP V4.0
#
DISCID=b009050c
DTITLE=Valdo e Vasco - Coisas do Coração
DYEAR=2001
DGENRE=Country
TTITLE0=Coisas do Coração
TTITLE1=Mulher Ciumenta
TTITLE2=Final Feliz
TTITLE3=Amor, Tristeza e Saldade
TTITLE4=Noite Inteira no Salão
TTITLE5=Amar Demais
TTITLE6=Volta pra Mim
TTITLE7=Solidão me Ganhou
TTITLE8=Beija, beija
TTITLE9=Pago o Preço que For
TTITLE10=Esta Escrito em Meu Olhar
TTITLE11=Coração de Peão
EXTD=
EXTT0=
EXTT1=
EXTT2=
EXTT3=
EXTT4=
EXTT5=
EXTT6=
EXTT7=
EXTT8=
EXTT9=
EXTT10=
EXTT11=
PLAYORDER=
